<svg width="156" height="169" viewBox="0 0 156 169" fill="none" xmlns="http://www.w3.org/2000/svg">
<path d="M155.18 169V172H158.18V169H155.18ZM124.477 169H121.477V172H124.477V169ZM124.477 100.328H127.477V97.3281H124.477V100.328ZM10.1016 99.1562L8.8516 101.883L8.89929 101.905L8.94772 101.925L10.1016 99.1562ZM5.17969 95.875L2.99865 97.9349L3.0575 97.9972L3.11982 98.056L5.17969 95.875ZM0.84375 0.953125V-2.04688H-2.15625V0.953125H0.84375ZM31.3125 0.953125H34.3125V-2.04688H31.3125V0.953125ZM31.3125 69.625H28.3125V72.625H31.3125V69.625ZM124.477 69.625V72.625H127.477V69.625H124.477ZM124.477 0.953125V-2.04688H121.477V0.953125H124.477ZM155.18 0.953125H158.18V-2.04688H155.18V0.953125ZM155.18 166H124.477V172H155.18V166ZM127.477 169V100.328H121.477V169H127.477ZM124.477 97.3281H16.1953V103.328H124.477V97.3281ZM16.1953 97.3281C14.3731 97.3281 12.7374 97.0045 11.2554 96.387L8.94772 101.925C11.2157 102.87 13.6425 103.328 16.1953 103.328V97.3281ZM11.3515 96.4291C9.75469 95.6972 8.39213 94.7825 7.23956 93.694L3.11982 98.056C4.77974 99.6237 6.69843 100.897 8.8516 101.883L11.3515 96.4291ZM7.36073 93.8151C6.29421 92.6859 5.43356 91.3562 4.78485 89.7993L-0.753606 92.107C0.160188 94.3001 1.40891 96.2516 2.99865 97.9349L7.36073 93.8151ZM4.78485 89.7993C4.16181 88.304 3.84375 86.7054 3.84375 84.9766H-2.15625C-2.15625 87.4665 -1.69306 89.8523 -0.753606 92.107L4.78485 89.7993ZM3.84375 84.9766V0.953125H-2.15625V84.9766H3.84375ZM0.84375 3.95312H31.3125V-2.04688H0.84375V3.95312ZM28.3125 0.953125V69.625H34.3125V0.953125H28.3125ZM31.3125 72.625H124.477V66.625H31.3125V72.625ZM127.477 69.625V0.953125H121.477V69.625H127.477ZM124.477 3.95312H155.18V-2.04688H124.477V3.95312ZM152.18 0.953125V169H158.18V0.953125H152.18Z" fill="#00CF78"/>
</svg>
