<svg width="32" height="32" viewBox="0 0 32 32" fill="none" xmlns="http://www.w3.org/2000/svg">
  <path
    d="M13.8179 4C11.876 4 9.97781 4.57582 8.36323 5.65465C6.74865 6.73348 5.49023 8.26686 4.74712 10.0609C4.00401 11.8549 3.80958 13.829 4.18841 15.7335C4.56725 17.6381 5.50233 19.3875 6.87542 20.7606C8.24851 22.1337 9.99794 23.0688 11.9025 23.4476C13.807 23.8264 15.7811 23.632 17.5751 22.8889C19.3691 22.1458 20.9025 20.8874 21.9814 19.2728C23.0602 17.6582 23.636 15.76 23.636 13.8181C23.6358 11.2142 22.6014 8.71707 20.7602 6.87585C18.9189 5.03463 16.4218 4.00017 13.8179 4Z"
    stroke="white" stroke-miterlimit="10" />
  <path d="M21.1428 21.1426L27.9997 27.9995" stroke="white" stroke-miterlimit="10" stroke-linecap="round" />
</svg>